<?xml version="1.0" encoding="utf-8"?>
<!-- Generator: Adobe Illustrator 27.7.0, SVG Export Plug-In . SVG Version: 6.00 Build 0)  -->
<svg version="1.1" id="Layer_1" xmlns="http://www.w3.org/2000/svg" xmlns:xlink="http://www.w3.org/1999/xlink" x="0px" y="0px"
	 viewBox="0 0 144.5 144.5" style="enable-background:new 0 0 144.5 144.5;" xml:space="preserve">
<g id="XMLID_00000054980197497448011210000015426244305468512150_">
	<g>
		<path d="M144.25,10.88v122.74c0,5.87-4.76,10.63-10.63,10.63H10.88c-5.87,0-10.63-4.76-10.63-10.63V10.88
			c0-5.87,4.76-10.63,10.63-10.63h122.74C139.49,0.25,144.25,5.01,144.25,10.88z M122.98,122.98V80.44c0-21-13.05-28.17-25.13-28.17
			c-11.17,0-18.49,7.23-20.58,11.46h-0.28V54.2H56.17v68.78h21.65V85.69c0-9.94,6.3-14.78,12.72-14.78c6.08,0,10.79,3.42,10.79,14.5
			v37.57H122.98z M43.17,122.92V54.15H21.52v68.77H43.17z M44.83,32.2c0-7.18-5.59-12.44-12.49-12.44
			c-6.89,0-12.48,5.26-12.48,12.44s5.59,12.42,12.48,12.42C39.24,44.62,44.83,39.38,44.83,32.2z"/>
	</g>
	<g>
	</g>
</g>
</svg>
