<?xml version="1.0" encoding="UTF-8" standalone="no"?>
<svg
   xmlns:dc="http://purl.org/dc/elements/1.1/"
   xmlns:cc="http://creativecommons.org/ns#"
   xmlns:rdf="http://www.w3.org/1999/02/22-rdf-syntax-ns#"
   xmlns:svg="http://www.w3.org/2000/svg"
   xmlns="http://www.w3.org/2000/svg"
   viewBox="0 0 96 151.99867"
   height="151.99867"
   width="96"
   xml:space="preserve"
   id="svg2"
   version="1.1"><metadata
     id="metadata8"><rdf:RDF><cc:Work
         rdf:about=""><dc:format>image/svg+xml</dc:format><dc:type
           rdf:resource="http://purl.org/dc/dcmitype/StillImage" /></cc:Work></rdf:RDF></metadata><defs
     id="defs6"><clipPath
       id="clipPath20"
       clipPathUnits="userSpaceOnUse"><path
         id="path18"
         d="M 0,0 H 72 V 113.999 H 0 Z" /></clipPath></defs><g
     transform="matrix(1.3333333,0,0,-1.3333333,0,151.99867)"
     id="g10"><path
       id="path12"
       style="fill:#0078d4;fill-opacity:1;fill-rule:nonzero;stroke:none"
       d="M 0,0 H 72 V 113.999 H 0 Z" /><g
       id="g14"><g
         clip-path="url(#clipPath20)"
         id="g16"><g
           transform="translate(36.0083,48.7085)"
           id="g22"><path
             id="path24"
             style="fill:#ffffff;fill-opacity:1;fill-rule:nonzero;stroke:none"
             d="M 0,0 -30.064,30.062 -0.018,60.109 30.047,30.044 Z m 1.801,21.588 h 3.73 l 4.627,18.13 H 6.643 L 4.128,27.836 C 4.01,27.177 3.919,26.55 3.862,25.953 L 3.797,25.472 H 3.71 C 3.653,26.398 3.556,27.166 3.432,27.771 L 0.915,39.718 H -2.701 Z M 14.713,36.68 h 1.165 c 0.714,0 1.298,-0.242 1.744,-0.731 0.445,-0.481 0.669,-1.214 0.669,-2.192 0,-1.987 -0.792,-2.981 -2.378,-2.981 h -1.2 z m 0,-8.909 h 1.456 c 1.725,0 3.116,0.581 4.17,1.744 1.053,1.167 1.58,2.639 1.58,4.426 0,1.88 -0.48,3.312 -1.441,4.299 -0.952,0.984 -2.292,1.478 -4.02,1.478 h -5.233 v -18.13 h 3.488 z m -25.666,1.012 c -0.103,-0.463 -0.207,-1.204 -0.315,-2.225 l -0.088,-0.669 h -0.063 c -0.052,0.75 -0.202,1.68 -0.457,2.792 l -2.539,11.037 h -4.894 v -18.13 h 2.894 v 9.61 c 0,1.66 -0.043,3.342 -0.125,5.043 h 0.1 l 0.491,-3.211 2.77,-11.442 h 3.188 l 2.642,11.605 c 0.25,1.264 0.43,2.283 0.542,3.048 h 0.078 c -0.085,-1.83 -0.128,-3.195 -0.128,-4.108 V 21.588 h 2.995 v 18.13 h -4.701 z" /></g><g
           transform="translate(13.2012,10.545)"
           id="g26"><path
             id="path28"
             style="fill:#ffffff;fill-opacity:1;fill-rule:nonzero;stroke:none"
             d="m 0,0 c 0.765,0 1.367,0.261 1.805,0.781 0.437,0.523 0.656,1.178 0.656,1.967 0,0.805 -0.199,1.42 -0.598,1.846 C 1.465,5.02 0.9,5.231 0.169,5.231 H -1.752 V -3.17 h 0.897 V 0 Z m 0.023,4.436 c 1,0 1.5,-0.588 1.5,-1.764 C 1.523,2.102 1.388,1.647 1.116,1.31 0.844,0.972 0.453,0.803 -0.059,0.803 H -0.855 V 4.436 Z M 6.346,2.854 C 6.22,2.9 6.061,2.924 5.865,2.924 5.173,2.924 4.727,2.541 4.523,1.774 H 4.494 V 2.83 h -0.85 v -6 h 0.85 v 3.059 c 0,1.48 0.433,2.22 1.301,2.22 0.168,0 0.351,-0.04 0.551,-0.117 z m 4.151,-5.292 c 0.393,0.559 0.588,1.338 0.588,2.338 0,0.942 -0.198,1.683 -0.594,2.224 C 10.094,2.665 9.544,2.936 8.842,2.936 8.127,2.936 7.566,2.659 7.16,2.105 6.754,1.554 6.551,0.779 6.551,-0.217 c 0,-0.952 0.194,-1.701 0.583,-2.244 0.388,-0.543 0.943,-0.815 1.661,-0.815 0.742,0 1.309,0.28 1.702,0.838 M 9.832,1.585 c 0.234,-0.404 0.352,-0.982 0.352,-1.731 0,-1.59 -0.452,-2.385 -1.353,-2.385 -0.931,0 -1.396,0.783 -1.396,2.348 0,0.763 0.122,1.349 0.367,1.759 0.244,0.41 0.586,0.616 1.029,0.616 0.432,0 0.766,-0.203 1.001,-0.607 m 4.711,4.163 c -0.207,0.038 -0.384,0.059 -0.527,0.059 -0.524,0 -0.927,-0.159 -1.21,-0.476 -0.284,-0.315 -0.425,-0.75 -0.425,-1.3 V 2.83 H 11.519 V 2.109 h 0.862 V -3.17 h 0.849 v 5.279 h 1.201 V 2.83 H 13.23 v 1.213 c 0,0.679 0.277,1.019 0.833,1.019 0.183,0 0.343,-0.023 0.48,-0.07 z m 4.453,-6.123 v 0.574 c 0,1.824 -0.649,2.737 -1.945,2.737 -0.692,0 -1.239,-0.286 -1.641,-0.857 -0.403,-0.569 -0.604,-1.308 -0.604,-2.214 0,-1.031 0.2,-1.812 0.598,-2.344 0.398,-0.531 0.978,-0.797 1.741,-0.797 0.531,0 1.031,0.135 1.499,0.405 v 0.803 c -0.472,-0.321 -0.936,-0.482 -1.388,-0.482 -1.051,0 -1.576,0.725 -1.576,2.175 z m -3.305,0.686 c 0.032,0.632 0.164,1.111 0.402,1.436 0.236,0.322 0.544,0.485 0.923,0.485 0.757,0 1.136,-0.64 1.136,-1.921 z m 5.485,-3.587 c 0.601,0 1.072,0.158 1.411,0.472 0.34,0.314 0.511,0.712 0.511,1.193 0,0.328 -0.082,0.624 -0.244,0.887 -0.162,0.264 -0.528,0.556 -1.099,0.876 -0.437,0.25 -0.714,0.459 -0.832,0.623 -0.117,0.167 -0.175,0.344 -0.175,0.532 0,0.273 0.09,0.494 0.269,0.662 0.18,0.168 0.426,0.251 0.738,0.251 0.364,0 0.743,-0.114 1.137,-0.339 v 0.814 c -0.336,0.16 -0.723,0.241 -1.16,0.241 -0.55,0 -0.999,-0.156 -1.344,-0.466 -0.346,-0.311 -0.519,-0.71 -0.519,-1.199 0,-0.32 0.083,-0.615 0.249,-0.884 0.166,-0.271 0.54,-0.567 1.122,-0.891 0.383,-0.219 0.642,-0.411 0.78,-0.574 0.136,-0.164 0.205,-0.346 0.205,-0.545 0,-0.625 -0.354,-0.938 -1.061,-0.938 -0.43,0 -0.865,0.148 -1.307,0.446 v -0.85 c 0.375,-0.207 0.814,-0.311 1.319,-0.311 m 4.154,0 c 0.602,0 1.072,0.158 1.412,0.472 0.34,0.314 0.51,0.712 0.51,1.193 0,0.328 -0.081,0.624 -0.243,0.887 -0.162,0.264 -0.529,0.556 -1.099,0.876 -0.438,0.25 -0.716,0.459 -0.832,0.623 -0.118,0.167 -0.177,0.344 -0.177,0.532 0,0.273 0.09,0.494 0.271,0.662 0.18,0.168 0.426,0.251 0.738,0.251 0.362,0 0.742,-0.114 1.137,-0.339 v 0.814 c -0.336,0.16 -0.723,0.241 -1.161,0.241 -0.55,0 -0.999,-0.156 -1.345,-0.466 -0.346,-0.311 -0.518,-0.71 -0.518,-1.199 0,-0.32 0.082,-0.615 0.249,-0.884 0.166,-0.271 0.54,-0.567 1.123,-0.891 0.381,-0.219 0.641,-0.411 0.778,-0.574 0.137,-0.164 0.206,-0.346 0.206,-0.545 0,-0.625 -0.354,-0.938 -1.062,-0.938 -0.428,0 -0.864,0.148 -1.306,0.446 v -0.85 c 0.376,-0.207 0.815,-0.311 1.319,-0.311 m 3.952,7.574 c 0.111,0.115 0.167,0.259 0.167,0.431 0,0.175 -0.057,0.317 -0.173,0.424 -0.115,0.108 -0.256,0.161 -0.424,0.161 -0.165,0 -0.306,-0.053 -0.425,-0.161 -0.119,-0.107 -0.18,-0.249 -0.18,-0.424 0,-0.172 0.06,-0.316 0.177,-0.431 0.117,-0.115 0.259,-0.173 0.428,-0.173 0.175,0 0.319,0.058 0.43,0.173 M 29.268,2.83 h -0.85 v -6 h 0.85 z m 5.152,-5.268 c 0.393,0.559 0.59,1.338 0.59,2.338 0,0.942 -0.199,1.683 -0.595,2.224 -0.397,0.541 -0.947,0.812 -1.649,0.812 -0.715,0 -1.276,-0.277 -1.682,-0.831 -0.407,-0.551 -0.609,-1.326 -0.609,-2.322 0,-0.952 0.194,-1.701 0.583,-2.244 0.387,-0.543 0.942,-0.815 1.661,-0.815 0.742,0 1.308,0.28 1.701,0.838 m -0.664,4.023 c 0.234,-0.404 0.35,-0.982 0.35,-1.731 0,-1.59 -0.45,-2.385 -1.352,-2.385 -0.931,0 -1.395,0.783 -1.395,2.348 0,0.763 0.121,1.349 0.367,1.759 0.244,0.41 0.587,0.616 1.028,0.616 0.434,0 0.767,-0.203 1.002,-0.607 m 6.486,-4.755 v 4.19 c 0,1.277 -0.544,1.916 -1.629,1.916 -0.715,0 -1.223,-0.337 -1.523,-1.008 H 37.06 V 2.83 h -0.85 v -6 h 0.85 v 3.861 c 0,0.465 0.115,0.831 0.346,1.099 0.231,0.268 0.53,0.402 0.902,0.402 0.723,0 1.085,-0.46 1.085,-1.378 V -3.17 Z m 4.992,0 v 4.154 c 0,1.3 -0.589,1.952 -1.763,1.952 -0.539,0 -1.086,-0.165 -1.642,-0.493 V 1.582 c 0.528,0.418 1.036,0.627 1.523,0.627 0.688,0 1.033,-0.389 1.033,-1.166 V 0.644 L 42.967,0.322 C 41.895,0.076 41.36,-0.564 41.36,-1.601 c 0,-0.487 0.137,-0.889 0.409,-1.203 0.271,-0.314 0.626,-0.472 1.069,-0.472 0.711,0 1.219,0.337 1.523,1.008 h 0.024 V -3.17 Z m -0.849,2.291 c 0,-0.496 -0.114,-0.898 -0.337,-1.207 -0.226,-0.309 -0.528,-0.464 -0.912,-0.464 -0.273,0 -0.495,0.099 -0.668,0.294 -0.172,0.195 -0.258,0.459 -0.258,0.791 0,0.645 0.333,1.041 0.996,1.19 l 1.179,0.263 z m 3.164,6.591 h -0.85 v -8.883 h 0.85 z" /></g><g
           transform="translate(13.5147,19.375)"
           id="g30"><path
             id="path32"
             style="fill:#ffffff;fill-opacity:1;fill-rule:nonzero;stroke:none"
             d="M 0,0 V 8.402 H -1.101 L -3.047,2.378 -3.276,1.383 H -3.299 C -3.361,1.734 -3.438,2.048 -3.528,2.326 L -5.52,8.402 H -6.656 V 0 h 0.791 v 5.555 c 0,0.504 -0.024,1.049 -0.071,1.634 h 0.047 c 0.114,-0.625 0.194,-1.005 0.24,-1.142 L -3.645,0 h 0.633 l 1.981,6.094 c 0.097,0.241 0.181,0.595 0.251,1.059 h 0.042 L -0.78,6.516 C -0.803,6.25 -0.815,5.954 -0.815,5.63 V 0 Z M 5.34,0.732 C 5.733,1.291 5.93,2.069 5.93,3.07 5.93,4.012 5.731,4.754 5.335,5.294 4.939,5.835 4.389,6.105 3.686,6.105 2.97,6.105 2.41,5.829 2.004,5.275 1.598,4.723 1.394,3.949 1.394,2.953 1.394,2 1.588,1.252 1.978,0.709 2.366,0.166 2.92,-0.106 3.639,-0.106 c 0.742,0 1.309,0.28 1.701,0.838 M 4.675,4.755 C 4.91,4.35 5.027,3.773 5.027,3.023 5.027,1.434 4.576,0.639 3.674,0.639 c -0.93,0 -1.395,0.782 -1.395,2.349 0,0.762 0.123,1.348 0.366,1.757 0.245,0.411 0.587,0.616 1.029,0.616 0.433,0 0.767,-0.203 1.001,-0.606 m 3.522,-4.861 c 0.601,0 1.072,0.158 1.412,0.472 0.34,0.314 0.51,0.712 0.51,1.193 0,0.328 -0.081,0.624 -0.243,0.887 C 9.713,2.71 9.347,3.001 8.777,3.322 8.34,3.572 8.063,3.78 7.945,3.946 7.828,4.112 7.77,4.289 7.77,4.477 c 0,0.273 0.089,0.494 0.269,0.661 0.18,0.169 0.426,0.253 0.738,0.253 0.364,0 0.742,-0.114 1.137,-0.34 v 0.814 c -0.336,0.16 -0.723,0.24 -1.16,0.24 -0.551,0 -1,-0.156 -1.345,-0.465 C 7.064,5.329 6.891,4.931 6.891,4.441 6.891,4.121 6.973,3.826 7.14,3.556 7.305,3.287 7.68,2.99 8.262,2.665 8.645,2.446 8.904,2.255 9.041,2.092 9.178,1.928 9.246,1.746 9.246,1.547 9.246,0.921 8.892,0.609 8.185,0.609 7.755,0.609 7.32,0.758 6.879,1.055 v -0.85 c 0.374,-0.207 0.814,-0.311 1.318,-0.311 m 5.332,0.874 c -0.168,-0.086 -0.351,-0.129 -0.55,-0.129 -0.458,0 -0.686,0.295 -0.686,0.884 v 3.756 h 1.236 v 0.72 H 12.293 V 7.764 L 11.443,7.487 V 5.999 h -0.821 v -0.72 h 0.821 V 1.441 c 0,-1.031 0.436,-1.547 1.306,-1.547 0.282,0 0.542,0.051 0.78,0.153 z m 8.367,7.634 H 20.97 L 19.23,2.085 C 19.117,1.582 19.057,1.283 19.048,1.189 H 19.025 C 18.994,1.51 18.943,1.801 18.873,2.063 l -1.67,6.339 H 16.242 L 18.569,0 h 0.89 z M 26.121,0 v 4.154 c 0,1.301 -0.588,1.951 -1.765,1.951 -0.538,0 -1.085,-0.164 -1.639,-0.492 V 4.752 c 0.527,0.418 1.034,0.627 1.523,0.627 0.687,0 1.031,-0.39 1.031,-1.166 V 3.814 L 23.854,3.491 C 22.782,3.245 22.247,2.605 22.247,1.57 c 0,-0.488 0.136,-0.89 0.408,-1.204 0.272,-0.314 0.628,-0.472 1.069,-0.472 0.712,0 1.219,0.336 1.523,1.007 h 0.024 V 0 Z m -0.85,2.291 c 0,-0.496 -0.113,-0.898 -0.337,-1.207 -0.225,-0.309 -0.529,-0.463 -0.912,-0.463 -0.272,0 -0.495,0.098 -0.667,0.294 -0.171,0.194 -0.257,0.458 -0.257,0.791 0,0.645 0.331,1.04 0.996,1.189 l 1.177,0.263 z m 3.164,6.592 H 27.586 V 0 h 0.849 z M 33.948,0 V 5.999 H 33.1 V 2.138 C 33.1,1.682 32.982,1.317 32.748,1.047 32.513,0.775 32.211,0.639 31.84,0.639 c -0.723,0 -1.085,0.459 -1.085,1.377 v 3.983 h -0.85 V 1.811 c 0,-1.277 0.547,-1.917 1.642,-1.917 0.694,0 1.204,0.336 1.528,1.007 H 33.1 V 0 Z m 5.04,0 v 4.154 c 0,1.301 -0.589,1.951 -1.763,1.951 -0.539,0 -1.087,-0.164 -1.642,-0.492 V 4.752 c 0.527,0.418 1.035,0.627 1.524,0.627 0.688,0 1.031,-0.39 1.031,-1.166 V 3.814 L 36.721,3.491 C 35.65,3.245 35.115,2.605 35.115,1.57 c 0,-0.488 0.136,-0.89 0.407,-1.204 0.272,-0.314 0.628,-0.472 1.069,-0.472 0.712,0 1.22,0.336 1.524,1.007 h 0.023 V 0 Z m -0.85,2.291 c 0,-0.496 -0.112,-0.898 -0.336,-1.207 -0.226,-0.309 -0.53,-0.463 -0.911,-0.463 -0.274,0 -0.497,0.098 -0.669,0.294 -0.171,0.194 -0.258,0.458 -0.258,0.791 0,0.645 0.333,1.04 0.996,1.189 l 1.178,0.263 z m 4.536,-2.397 c 0.679,0 1.201,0.299 1.564,0.894 0.364,0.596 0.544,1.429 0.544,2.499 0,0.871 -0.161,1.559 -0.485,2.063 -0.324,0.503 -0.785,0.755 -1.384,0.755 -0.738,0 -1.265,-0.363 -1.581,-1.089 H 41.303 V 8.883 H 40.452 V 0 h 0.851 v 0.768 h 0.029 c 0.281,-0.583 0.728,-0.874 1.342,-0.874 M 41.65,4.795 c 0.242,0.378 0.574,0.566 0.999,0.566 0.395,0 0.702,-0.185 0.921,-0.553 0.22,-0.369 0.327,-0.904 0.327,-1.603 0,-1.712 -0.457,-2.566 -1.37,-2.566 -0.386,0 -0.689,0.175 -0.909,0.523 C 41.399,1.513 41.29,1.96 41.29,2.508 v 0.838 c 0,0.59 0.12,1.073 0.36,1.449 m 5.196,4.088 H 45.995 V 0 h 0.851 z m 5.396,-6.087 v 0.573 c 0,1.824 -0.649,2.736 -1.945,2.736 -0.692,0 -1.238,-0.284 -1.642,-0.855 -0.401,-0.57 -0.602,-1.309 -0.602,-2.215 0,-1.031 0.199,-1.813 0.596,-2.344 0.399,-0.53 0.979,-0.797 1.741,-0.797 0.532,0 1.031,0.135 1.5,0.405 V 1.102 C 51.417,0.781 50.954,0.621 50.502,0.621 c -1.051,0 -1.576,0.725 -1.576,2.175 z M 48.937,3.48 c 0.032,0.633 0.165,1.111 0.402,1.436 0.236,0.324 0.543,0.487 0.923,0.487 0.758,0 1.135,-0.641 1.135,-1.923 z" /></g><g
           transform="translate(16.9463,33.458)"
           id="g34"><path
             id="path36"
             style="fill:#ffffff;fill-opacity:1;fill-rule:nonzero;stroke:none"
             d="M 0,0 V 10.923 H -2.834 L -4.273,4.334 C -4.334,4.056 -4.397,3.608 -4.463,2.993 L -4.517,2.59 h -0.038 c -0.03,0.452 -0.122,1.014 -0.275,1.683 l -1.53,6.65 H -9.308 V 0 h 1.744 v 5.79 c 0,1 -0.025,2.013 -0.076,3.039 h 0.06 L -7.282,6.895 -5.614,0 h 1.92 l 1.592,6.993 c 0.152,0.761 0.261,1.373 0.328,1.836 H -1.73 C -1.78,7.726 -1.805,6.901 -1.805,6.354 V 0 Z m 3.58,9.216 c 0.223,0.23 0.335,0.522 0.335,0.878 0,0.355 -0.112,0.643 -0.335,0.868 -0.224,0.223 -0.518,0.334 -0.884,0.334 -0.34,0 -0.624,-0.109 -0.852,-0.327 -0.229,-0.218 -0.343,-0.51 -0.343,-0.875 0,-0.336 0.111,-0.623 0.334,-0.862 0.224,-0.239 0.511,-0.358 0.861,-0.358 0.366,0 0.66,0.114 0.884,0.342 M 3.702,7.8 H 1.713 V 0 H 3.702 Z M 9.582,1.936 C 9.258,1.646 8.876,1.5 8.439,1.5 7.993,1.5 7.645,1.703 7.395,2.106 7.147,2.51 7.023,3.098 7.023,3.869 c 0,0.736 0.136,1.328 0.407,1.776 0.272,0.446 0.639,0.669 1.101,0.669 0.416,0 0.767,-0.149 1.051,-0.449 V 7.61 C 9.308,7.828 8.856,7.938 8.227,7.938 7.252,7.938 6.463,7.563 5.862,6.817 5.259,6.071 4.958,5.041 4.958,3.725 c 0,-1.118 0.287,-2.04 0.862,-2.769 0.574,-0.729 1.297,-1.093 2.17,-1.093 0.676,0 1.206,0.151 1.592,0.449 z m 5.489,5.925 c -0.173,0.051 -0.339,0.077 -0.496,0.077 -0.797,0 -1.333,-0.477 -1.607,-1.432 h -0.03 V 7.8 H 10.95 V 0 h 1.988 v 3.931 c 0,1.437 0.482,2.155 1.447,2.155 0.228,0 0.457,-0.048 0.686,-0.145 z m 6.083,-6.924 c 0.551,0.716 0.827,1.745 0.827,3.085 0,1.229 -0.278,2.189 -0.835,2.879 -0.555,0.692 -1.334,1.037 -2.334,1.037 -0.996,0 -1.775,-0.35 -2.339,-1.048 C 15.91,6.192 15.628,5.2 15.628,3.915 c 0,-1.29 0.274,-2.288 0.823,-2.993 0.548,-0.706 1.325,-1.059 2.331,-1.059 1.03,0 1.822,0.358 2.372,1.074 m -1.23,3.07 c 0,-1.671 -0.371,-2.507 -1.112,-2.507 -0.746,0 -1.12,0.811 -1.12,2.431 0,1.578 0.374,2.369 1.12,2.369 0.741,0 1.112,-0.765 1.112,-2.293 m 5.092,-4.144 c 0.894,0 1.575,0.219 2.045,0.659 0.47,0.44 0.704,1.008 0.704,1.71 0,0.472 -0.108,0.888 -0.327,1.248 -0.218,0.363 -0.666,0.735 -1.34,1.121 -0.447,0.25 -0.725,0.442 -0.834,0.579 -0.11,0.137 -0.164,0.288 -0.164,0.449 0,0.513 0.306,0.769 0.921,0.769 0.407,0 0.879,-0.147 1.417,-0.442 v 1.692 c -0.488,0.192 -1.024,0.29 -1.607,0.29 -0.849,0 -1.512,-0.217 -1.992,-0.653 -0.48,-0.432 -0.72,-1.001 -0.72,-1.701 0,-0.442 0.11,-0.854 0.328,-1.233 0.218,-0.381 0.691,-0.782 1.416,-1.197 0.3,-0.173 0.531,-0.329 0.695,-0.469 0.161,-0.139 0.243,-0.311 0.243,-0.513 0,-0.515 -0.308,-0.77 -0.922,-0.77 -0.6,0 -1.177,0.193 -1.73,0.578 V 0.251 c 0.473,-0.259 1.095,-0.388 1.867,-0.388 m 9.115,1.074 c 0.55,0.716 0.826,1.745 0.826,3.085 0,1.229 -0.278,2.189 -0.835,2.879 -0.556,0.692 -1.335,1.037 -2.335,1.037 -0.995,0 -1.774,-0.35 -2.338,-1.048 -0.564,-0.698 -0.845,-1.69 -0.845,-2.975 0,-1.29 0.274,-2.288 0.822,-2.993 0.549,-0.706 1.326,-1.059 2.331,-1.059 1.03,0 1.821,0.358 2.374,1.074 m -1.232,3.07 c 0,-1.671 -0.37,-2.507 -1.112,-2.507 -0.746,0 -1.119,0.811 -1.119,2.431 0,1.578 0.373,2.369 1.119,2.369 0.742,0 1.112,-0.765 1.112,-2.293 m 6.89,7.571 -0.335,0.068 c -0.133,0.026 -0.287,0.039 -0.465,0.039 -0.844,0 -1.484,-0.241 -1.926,-0.72 C 36.62,10.484 36.4,9.822 36.4,8.974 V 7.8 H 35.493 V 6.178 H 36.4 V 0 h 1.98 v 6.178 h 1.265 V 7.8 H 38.38 v 1.25 c 0,0.665 0.277,0.997 0.83,0.997 0.224,0 0.417,-0.03 0.579,-0.091 z M 43.796,1.639 C 43.618,1.547 43.418,1.5 43.193,1.5 42.711,1.5 42.47,1.806 42.47,2.415 v 3.763 h 1.326 V 7.8 H 42.47 v 2.369 c -0.066,0 -0.672,-0.19 -1.82,-0.571 L 40.49,9.544 V 7.8 H 39.538 V 6.178 h 0.952 v -3.93 c 0,-1.59 0.665,-2.385 1.996,-2.385 0.466,0 0.904,0.081 1.31,0.244 z m 3.852,4.933 c 0.312,0.302 0.467,0.673 0.467,1.115 0,0.448 -0.152,0.82 -0.459,1.115 -0.304,0.296 -0.683,0.443 -1.135,0.443 -0.457,0 -0.839,-0.152 -1.15,-0.457 -0.31,-0.304 -0.466,-0.675 -0.466,-1.113 0,-0.452 0.154,-0.825 0.459,-1.117 0.307,-0.293 0.688,-0.44 1.144,-0.44 0.449,0 0.83,0.152 1.14,0.454 M 47.473,8.637 C 47.73,8.38 47.86,8.061 47.86,7.679 47.86,7.299 47.729,6.98 47.467,6.722 47.204,6.464 46.888,6.336 46.513,6.336 c -0.377,0 -0.699,0.127 -0.959,0.382 -0.262,0.256 -0.393,0.576 -0.393,0.961 0,0.378 0.129,0.696 0.385,0.954 0.257,0.26 0.579,0.388 0.967,0.388 0.381,0 0.701,-0.128 0.96,-0.384 M 47.316,6.715 47.08,7.275 C 47.003,7.459 46.9,7.568 46.771,7.601 v 0.007 c 0.318,0.079 0.476,0.254 0.476,0.524 0,0.173 -0.065,0.307 -0.194,0.406 -0.13,0.098 -0.318,0.146 -0.566,0.146 H 45.845 V 6.715 h 0.383 v 0.791 h 0.168 c 0.122,0 0.216,-0.098 0.286,-0.293 l 0.176,-0.498 z m -0.863,1.653 c 0.254,0 0.38,-0.094 0.38,-0.28 C 46.833,8 46.803,7.93 46.744,7.877 46.684,7.825 46.604,7.799 46.5,7.799 h -0.272 v 0.569 z" /></g></g></g></g></svg>