<?xml version="1.0" encoding="UTF-8"?>
<svg id="Layer_1" data-name="Layer 1" xmlns="http://www.w3.org/2000/svg" viewBox="0 0 193 220">
  <defs>
    <style>
      .cls-1 {
        fill: none;
        stroke: #fff;
        stroke-miterlimit: 10;
      }

      .cls-2 {
        font-family: Metric-Bold, Metric;
        font-size: 20.42676px;
        font-weight: 700;
      }

      .cls-2, .cls-3 {
        fill: #fff;
      }

      .cls-4 {
        fill: #5ce500;
      }

      .cls-4, .cls-5, .cls-6, .cls-7, .cls-8, .cls-9, .cls-3 {
        stroke-width: 0px;
      }

      .cls-5 {
        fill: #5e76df;
      }

      .cls-6 {
        fill: #2b2ba8;
      }

      .cls-7 {
        fill: #889aea;
      }

      .cls-8 {
        fill: #4356cc;
      }

      .cls-9 {
        fill: #212568;
      }
    </style>
  </defs>
  <g>
    <polygon class="cls-5" points="191.83171 54.99006 191.83171 110.01975 1.16829 110.01975 1.16829 54.99006 36.99678 34.31819 96.49994 .00113 156.00309 34.31819 191.83171 54.99006"/>
    <polygon class="cls-6" points="191.83171 110.01975 191.83171 164.9881 191.15759 165.37621 109.10334 212.72542 96.49994 219.99734 83.85577 212.70498 1.16829 164.9881 1.16829 110.01975 191.83171 110.01975"/>
  </g>
  <g>
    <polygon class="cls-6" points="11.38186 110.01851 11.38186 60.88957 96.5 11.79154 181.61814 60.88957 181.61814 110.01851 11.38186 110.01851"/>
    <polygon class="cls-9" points="181.61833 110.01851 181.61833 159.08362 96.50006 208.20995 11.38167 159.08362 11.38167 110.01851 181.61833 110.01851"/>
  </g>
  <g>
    <g>
      <path class="cls-9" d="m94.12072,96.68497c8.92935,0,16.16802-7.23867,16.16802-16.16802s-7.23867-16.16802-16.16802-16.16802H27.54988v32.1639l66.57085.17213Z"/>
      <line class="cls-1" x1="89.71271" y1="80.51695" x2="27.54988" y2="80.51695"/>
      <circle class="cls-8" cx="27.54988" cy="80.51695" r="16.16802"/>
      <path class="cls-7" d="m43.71789,80.51695c0,8.92935-7.23867,16.16802-16.16802,16.16802s-16.16802-7.23867-16.16802-16.16802"/>
    </g>
    <g>
      <path class="cls-9" d="m98.87947,96.68497c-8.92935,0-16.16802-7.23867-16.16802-16.16802s7.23867-16.16802,16.16802-16.16802h66.57085v32.1639s-66.57085.17213-66.57085.17213Z"/>
      <line class="cls-1" x1="165.45031" y1="80.51695" x2="103.28747" y2="80.51695"/>
      <circle class="cls-8" cx="165.45031" cy="80.51695" r="16.16802"/>
      <path class="cls-7" d="m181.61833,80.51695c0-8.92935-7.23867-16.16802-16.16802-16.16802-8.92935,0-16.16802,7.23867-16.16802,16.16802"/>
    </g>
    <g>
      <g id="Group_3228" data-name="Group 3228">
        <path class="cls-8" d="m142.21271,64.30001c0,12.61015-5.11565,24.04044-13.38383,32.29882-8.25839,8.26818-19.68867,13.38383-32.29882,13.38383s-24.04044-5.11565-32.29894-13.38383c-8.26807-8.25839-13.38371-19.68867-13.38371-32.29882,0-25.22993,20.45266-45.68271,45.68265-45.68271,8.79998,0,17.02945,2.49496,24.00184,6.80795,13.01623,8.04573,21.68082,22.44481,21.68082,38.87476Z"/>
        <path class="cls-7" d="m142.21271,64.30001c0,12.61015-5.11565,24.04044-13.38383,32.29882-8.25839,8.26818-19.68867,13.38383-32.29882,13.38383v-45.68265h45.68265Z"/>
        <path class="cls-5" d="m128.82888,96.59883c-8.25839,8.26818-19.68867,13.38383-32.29882,13.38383s-24.04044-5.11565-32.29894-13.38383l32.29894-32.29882,32.29882,32.29882Z"/>
        <path class="cls-7" d="m142.21271,64.30001h-45.68265V18.61729c8.79998,0,17.02945,2.49496,24.00184,6.80795,13.01623,8.04573,21.68082,22.44481,21.68082,38.87476Z"/>
        <path class="cls-9" d="m142.21271,64.30001h-45.68265l24.00184-38.87476c13.01623,8.04573,21.68082,22.44481,21.68082,38.87476Z"/>
      </g>
      <circle class="cls-6" cx="96.53006" cy="64.30001" r="11.12171"/>
    </g>
  </g>
  <g>
    <text class="cls-2" transform="translate(54.8004 174.10004)"><tspan x="0" y="0">Champion</tspan></text>
    <g>
      <g>
        <path class="cls-3" d="m54.08346,135.17113h-4.45617v12.06786h1.97724v-4.73618h2.4952c2.69994,0,4.18702-1.31895,4.18702-3.71482,0-1.08744-.41016-3.61686-4.20329-3.61686Zm2.19283,3.65009c0,1.36097-.70608,1.91588-2.43757,1.91588h-2.23419v-3.78399h2.4952c1.46539,0,2.17656.61152,2.17656,1.86811Zm7.89609-.37458l.14949.07221-.33558,1.7837-.23084-.07119c-.18915-.0583-.38135-.08779-.57118-.08779-1.84707,0-1.99792,1.47114-1.99792,3.25043v3.845h-1.83114v-8.86183h1.71691v1.06912c.4671-.71898,1.03252-1.09015,1.77623-1.18132.48745-.05628.96235.01016,1.32404.18167Zm4.50091-.24813c-1.44132,0-2.5952.54881-3.33857,1.58675-.78032,1.09015-.89591,2.37181-.89591,3.03857,0,2.80062,1.66132,4.60972,4.23448,4.60972,3.12637,0,4.23549-2.51858,4.23549-4.67481,0-1.24064-.36779-2.36637-1.03388-3.17042-.75456-.90913-1.86199-1.38981-3.20162-1.38981Zm0,7.59949c-1.43285,0-2.323-1.13997-2.323-2.97416,0-1.85385.89015-3.00603,2.323-3.00603,1.42166,0,2.3396,1.16641,2.3396,2.97381,0,1.85387-.89693,3.00638-2.3396,3.00638Zm19.62293-7.35136l.14949.07221-.33661,1.7837-.23117-.07119c-.18814-.0583-.38033-.08779-.57084-.08779-1.84674,0-1.99656,1.47114-1.99656,3.25043v3.845h-1.83115v-8.86183h1.71725v1.06912c.46676-.71898,1.03252-1.09015,1.77623-1.18132.48711-.05628.96133.01016,1.32336.18167Zm6.57579,5.95139l-.0339.09728c-.38203,1.08948-1.29556,1.31794-1.99554,1.31794-1.38539,0-2.27724-.91962-2.36401-2.4135h6.26561l.02306-.17389c.0278-.20507.02305-.49388.02-.70505-.00034-.05764-.00204-.10949-.00204-.16001-.09152-2.48062-1.70843-4.147-4.02398-4.147-1.35251,0-2.46129.53116-3.2067,1.53757-.60236.81388-.94845,1.93996-.94845,3.08874,0,2.73824,1.70302,4.57854,4.23652,4.57854,1.95995,0,3.30975-.99624,3.80195-2.80435l.05898-.21627h-1.83148Zm-4.33279-2.58773c.1539-1.22777.99489-2.00809,2.18945-2.00809.91286,0,1.99351.53083,2.14469,2.00809h-4.33414Zm-10.39434-2.68944c-.59083-.61253-1.3803-.92235-2.35587-.92235-2.68638,0-3.9094,2.36401-3.9094,4.56023,0,2.25384,1.20878,4.52837,3.9094,4.52837.90099,0,1.70606-.33151,2.28604-.92777-.00644.39016-.01661.76269-.02745.92099-.09966,1.46202-.80201,2.14268-2.21012,2.14268-.76608,0-1.64505-.27186-1.81487-1.03524l-.03729-.16847-1.80436.00033.02915.24169c.18881,1.56234,1.56064,2.53317,3.5789,2.53317,1.77114,0,3.03145-.66744,3.64398-1.92877.29558-.60779.44507-1.49386.44507-2.63215v-8.05641h-1.73318v.7437Zm-2.2413,6.53104c-.64033,0-2.12775-.29017-2.12775-2.97418,0-1.76402.83388-2.85992,2.17588-2.85992,1.03693,0,2.14469.75117,2.14469,2.85992,0,1.86165-.81997,2.97418-2.19282,2.97418Zm27.34072-1.08067c0,1.40913-1.16981,2.83114-3.78331,2.83114-2.31113,0-3.6867-1.00099-3.87143-2.81757l-.01967-.18678h1.802l.02745.1356c.22101,1.09217,1.26133,1.32133,2.09589,1.32133.91387,0,1.89046-.29491,1.89046-1.12066,0-.41863-.27254-.71556-.80913-.88302-.31864-.09457-.70982-.20474-1.1237-.32033-.71286-.19932-1.45048-.40711-1.90437-.56337-1.12404-.4027-1.76911-1.18676-1.76911-2.15114,0-1.78674,1.73962-2.58671,3.46263-2.58671,2.3047,0,3.4972.86811,3.64703,2.65315l.01525.18407-1.77589-.00137-.02474-.14067c-.17864-1.02777-1.20032-1.18132-1.7942-1.18132-.5122,0-1.70403.09151-1.70403.941,0,.38608.32982.6698,1.00879.86674.20236.05696.50406.13425.85218.22442.72304.18711,1.62369.42066,2.07691.57728,1.12912.39693,1.70098,1.14301,1.70098,2.21824Zm8.45709,0c0,1.40913-1.16981,2.83114-3.78229,2.83114-2.31181,0-3.68737-1.00099-3.87211-2.81757l-.01931-.18678h1.80233l.02678.1356c.22067,1.09217,1.26166,1.32133,2.09622,1.32133.91387,0,1.88979-.29491,1.88979-1.12066,0-.41863-.27254-.71556-.80846-.88302-.31932-.09457-.71049-.20474-1.12472-.32033-.71185-.19932-1.44946-.40711-1.90301-.56337-1.12438-.4027-1.76911-1.18676-1.76911-2.15114,0-1.78674,1.73894-2.58671,3.46229-2.58671,2.3047,0,3.49687.86811,3.64636,2.65315l.01559.18407-1.77555-.00137-.02474-.14067c-.17897-1.02777-1.19998-1.18132-1.79454-1.18132-.51151,0-1.70369.09151-1.70369.941,0,.38608.33016.6698,1.00845.86674.2027.05696.50338.13425.85286.22442.7227.18711,1.62302.42066,2.07691.57728,1.12743.39693,1.69997,1.14301,1.69997,2.21824Z"/>
        <path class="cls-3" d="m115.15027,139.32762c-.68279,0-1.24833-.53112-1.24833-1.26215,0-.73113.56553-1.26215,1.24833-1.26215s1.24843.53102,1.24843,1.26215c0,.73103-.56563,1.26215-1.24843,1.26215Zm0-2.31046c-.56553,0-1.02077.43444-1.02077,1.04831s.45523,1.04831,1.02077,1.04831c.56563,0,1.02076-.43444,1.02076-1.04831s-.45513-1.04831-1.02076-1.04831Zm-.14481,1.28284v.42072h-.37238v-1.32421h.62073c.29649,0,.48964.17236.48964.46209,0,.20688-.09668.34483-.25522.40003l.30335.46209h-.41365l-.25521-.42072h-.11727Zm.20688-.59318h-.20688v.29659h.20688c.1104,0,.17246-.0552.17246-.14481,0-.08971-.06206-.15178-.17246-.15178Z"/>
      </g>
      <path class="cls-4" d="m45.07909,144.26431c0,.19423-.13728.43084-.3044.52677l-4.23956,2.44807v-9.44283l-8.1771-4.72126,4.23956-2.44706c.16711-.09693.44202-.09693.60948,0l7.87202,4.54532v9.09099Zm-6.3629-5.4192l-5.59987-3.23485c-.16745-.09627-.44101-.09627-.6088,0l-3.78432,2.18538,5.90596,3.41009.00102,6.82086,3.78161-2.18503c.16779-.09695.3044-.33424.3044-.52746v-6.469Zm-9.99299,5.77104l4.086,2.36029v-4.72192l-4.086,2.36163Z"/>
      <g>
        <path class="cls-3" d="m118.02953,135.37479h9.66212v.90818h-4.34775v10.95661h-.98581v-10.95661h-4.32855v-.90818Z"/>
        <path class="cls-3" d="m130.58154,146.56328c.96595,0,1.68097-.23205,2.4152-.85042v.94708c-.63756.5217-1.48765.75343-2.49266.75343-2.396,0-4.00017-1.7005-4.00017-4.38648,0-2.64725,1.43005-4.54108,3.71019-4.54108,2.24174,0,3.40101,1.7005,3.40101,4.19316v.34791h-6.16412c0,2.31887,1.35259,3.5364,3.13055,3.5364Zm-3.09182-4.32855h5.19784c-.05793-1.50718-.77296-2.8985-2.47346-2.8985-1.41052,0-2.49266,1.04341-2.72438,2.8985Z"/>
        <path class="cls-3" d="m135.99091,147.23958h-.96628v-12.56062h.96628v12.56062Z"/>
        <path class="cls-3" d="m141.53434,146.56328c.96595,0,1.68097-.23205,2.4152-.85042v.94708c-.63756.5217-1.48765.75343-2.49266.75343-2.396,0-4.00017-1.7005-4.00017-4.38648,0-2.64725,1.43005-4.54108,3.71019-4.54108,2.24174,0,3.40101,1.7005,3.40101,4.19316v.34791h-6.16412c0,2.31887,1.35259,3.5364,3.13055,3.5364Zm-3.09182-4.32855h5.19784c-.05793-1.50718-.77296-2.8985-2.47346-2.8985-1.41052,0-2.49266,1.04341-2.72438,2.8985Z"/>
        <path class="cls-3" d="m149.99482,139.54875c-.23172-.09666-.48297-.15459-.79216-.15459-1.04341,0-1.87429.75343-2.28014,1.85509v5.99033h-.96628v-8.57998h.96628v1.37212c.38631-.85009,1.25593-1.54591,2.31887-1.54591.32838,0,.56043.05793.75343.11586v.94708Z"/>
        <path class="cls-3" d="m151.52286,136.70801c-.36711,0-.6571-.28982-.6571-.65693,0-.34791.28998-.6571.6571-.6571s.6571.30918.6571.6571c0,.36711-.28998.65693-.6571.65693Zm.48297,10.53157h-.96628v-8.57998h.96628v8.57998Z"/>
        <path class="cls-3" d="m160.57952,147.23958h-1.19833l-4.46361-4.40568v4.40568h-.96628v-12.56062h.96628v7.72956l4.32855-3.74892h1.25593l-4.57981,3.92304,4.65727,4.65694Z"/>
        <path class="cls-3" d="m163.02517,139.35377c-.68457,0-1.25163-.5323-1.25163-1.26553,0-.7329.56706-1.26553,1.25163-1.26553s1.25163.53263,1.25163,1.26553c0,.73323-.56706,1.26553-1.25163,1.26553Zm0-2.31655c-.56706,0-1.02355.43564-1.02355,1.05102,0,.61572.45649,1.05135,1.02355,1.05135s1.02355-.43564,1.02355-1.05135c0-.61539-.45649-1.05102-1.02355-1.05102Zm-.14532,1.28638v.42173h-.3734v-1.32776h.62234c.2976,0,.49125.1728.49125.46328,0,.20739-.09699.34576-.25589.40104l.30422.46344h-.41511l-.25589-.42173h-.11752Zm.20756-.59486h-.20756v.29727h.20756c.11056,0,.1728-.05528.1728-.14516s-.06223-.15211-.1728-.15211Z"/>
      </g>
    </g>
  </g>
</svg>